<?xml version="1.0" standalone="no"?>
<!DOCTYPE svg PUBLIC "-//W3C//DTD SVG 20010904//EN"
 "http://www.w3.org/TR/2001/REC-SVG-20010904/DTD/svg10.dtd">
<svg version="1.0" xmlns="http://www.w3.org/2000/svg"
 width="512.000000pt" height="512.000000pt" viewBox="0 0 512.000000 512.000000"
 preserveAspectRatio="xMidYMid meet">
<metadata>
Created by potrace 1.14, written by Peter Selinger 2001-2017
</metadata>
<g transform="translate(0.000000,512.000000) scale(0.100000,-0.100000)"
fill="#000000" stroke="none">
<path d="M3028 4345 c-2 -2 -23 -6 -48 -9 -103 -14 -211 -92 -261 -189 l-20
-38 -32 43 c-83 109 -201 161 -362 160 -139 -2 -258 -44 -333 -121 -58 -59
-62 -64 -89 -126 -51 -117 -56 -161 -57 -486 l0 -257 -54 -12 c-111 -25 -267
-98 -366 -172 -71 -53 -178 -163 -225 -231 -41 -61 -104 -189 -126 -257 -31
-98 -30 -97 -77 -105 -23 -4 -45 -9 -48 -9 -7 -3 -81 -17 -110 -22 -14 -3 -41
-9 -60 -14 -19 -5 -50 -12 -68 -15 -19 -3 -136 -28 -260 -56 -125 -27 -238
-51 -251 -54 -60 -11 -46 -36 29 -53 30 -6 62 -14 70 -16 8 -2 177 -45 375
-96 198 -50 363 -95 367 -98 3 -4 18 -42 32 -85 34 -101 93 -215 151 -292 122
-161 289 -280 482 -345 161 -53 145 -52 1078 -54 856 -1 921 1 1067 45 209 62
429 225 541 400 64 101 124 240 142 330 29 144 32 275 9 401 -59 328 -265 594
-569 734 -76 35 -196 71 -270 80 -22 3 -41 7 -42 8 -2 2 -5 137 -7 302 -3 234
-7 309 -19 345 -74 223 -253 352 -506 363 -44 2 -82 2 -83 1z m170 -369 c42
-22 80 -70 88 -113 9 -46 11 -264 3 -269 -6 -3 -289 -7 -370 -5 l-35 1 2 138
c2 75 5 146 8 157 2 11 5 22 5 25 3 19 56 64 88 75 48 17 171 12 211 -9z
m-737 -26 c60 -17 92 -54 105 -121 9 -49 12 -216 4 -229 -6 -10 -169 -15 -367
-11 l-33 1 0 113 c0 167 19 215 95 242 47 17 145 19 196 5z"/>
</g>
</svg>
